# xmcd CD database file
#
# Track frame offsets:
#	150
#	13719
#	50055
#	68757
#	94091
#	108199
#	131756
#	156038
#
# Disc length: 2248 seconds
#
# Revision: 0
# Processed by: cddbd v1.5.2PL0 Copyright (c) Steve Scherf et al.
# Submitted via: CDex 1.51
#
DISCID=6408c608
DTITLE=Shirley Cason - Winter Mornings
DYEAR=2003
DGENRE=New Age
TTITLE0=Beauty Of The Earth
TTITLE1=Winter Skies
TTITLE2=Icicle Melt
TTITLE3=Degrees
TTITLE4=Winter Mornings
TTITLE5=Snow Dance
TTITLE6=Children and Snowmen
TTITLE7=Gulf Of Florida
EXTD=YEAR: 2003
EXTT0=
EXTT1=
EXTT2=
EXTT3=
EXTT4=
EXTT5=
EXTT6=
EXTT7=
PLAYORDER=
